<svg width="17" height="14" viewBox="0 0 17 14" fill="none" xmlns="http://www.w3.org/2000/svg">
<path d="M17 4.0445C17 1.825 15.1605 0.0265007 12.8915 0.0265007H12.493C12.2165 0.0265007 11.992 0.245501 11.992 0.516001V1.4955C11.992 1.766 12.2165 1.9855 12.493 1.9855H12.8915C14.054 1.9855 14.997 2.9075 14.997 4.0445V5.885C14.997 6.212 14.6745 6.4485 14.355 6.352C14.0085 6.247 13.6405 6.1905 13.2595 6.1905C11.593 6.1905 10.1795 7.263 9.69901 8.7385C9.635 8.9355 9.43999 9.0635 9.22849 9.0635H7.77451C7.56301 9.0635 7.36799 8.9355 7.30399 8.7385C6.82349 7.263 5.40999 6.1905 3.74399 6.1905C3.36149 6.1905 2.99301 6.2475 2.64551 6.353C2.32551 6.4495 2.00299 6.213 2.00299 5.8855V4.018C2.00299 2.881 2.9455 1.959 4.108 1.959H4.50699C4.78349 1.959 5.008 1.74 5.008 1.4695V0.49C5.008 0.2195 4.78349 0 4.50699 0H4.108C1.8395 0 0 1.799 0 4.0175V9.7955H0.00949097C0.00899097 9.8125 0.00698853 9.8285 0.00698853 9.8455C0.00698853 11.8605 1.68349 13.5 3.74399 13.5C5.26599 13.5 6.5755 12.604 7.1575 11.3245C7.2385 11.1455 7.40999 11.0225 7.60999 11.0225H9.39301C9.59301 11.0225 9.76449 11.1455 9.84549 11.3245C10.4275 12.604 11.737 13.5 13.2595 13.5C15.3195 13.5 16.996 11.8605 16.996 9.8455C16.996 9.8375 16.995 9.83 16.995 9.822H17V4.0445ZM3.74399 11.541C2.78799 11.541 2.01001 10.7805 2.01001 9.8455C2.01001 8.91 2.78799 8.1495 3.74399 8.1495C4.70049 8.1495 5.478 8.91 5.478 9.8455C5.478 10.7805 4.70049 11.541 3.74399 11.541ZM13.2595 11.541C12.303 11.541 11.525 10.7805 11.525 9.8455C11.525 8.91 12.303 8.1495 13.2595 8.1495C14.2155 8.1495 14.993 8.91 14.993 9.8455C14.993 10.7805 14.2155 11.541 13.2595 11.541Z" fill="#C2CFE0"/>
</svg>
